<?xml version="1.0" encoding="utf-8"?>
<!-- Generator: Adobe Illustrator 26.3.1, SVG Export Plug-In . SVG Version: 6.00 Build 0)  -->
<svg version="1.1" id="Layer_1" xmlns="http://www.w3.org/2000/svg" xmlns:xlink="http://www.w3.org/1999/xlink" x="0px" y="0px"
	 viewBox="0 0 48 48" style="enable-background:new 0 0 48 48;" xml:space="preserve">
<style type="text/css">
	.st0{fill:#FFFFFF;}
	.st1{fill:#515151;}
</style>
<path class="st0" d="M36,48H12C5.4,48,0,42.6,0,36V12C0,5.4,5.4,0,12,0h24c6.6,0,12,5.4,12,12v24C48,42.6,42.6,48,36,48z"/>
<polygon class="st1" points="39.08,15.91 39.08,34.76 33.12,19.4 31.19,19.4 25.23,35.1 25.23,15.91 25.23,15.91 25.23,5.15 
	22.7,5.15 15.85,23.37 8.99,5.15 6.47,5.15 6.47,30.26 8.92,30.26 8.92,11.41 14.88,26.77 16.81,26.77 22.77,11.08 22.77,30.26 
	22.77,30.26 22.77,41.02 25.3,41.02 32.15,22.8 39.01,41.02 41.53,41.02 41.53,15.91 "/>
</svg>
